<mxfile host="Electron" modified="2024-01-03T16:53:59.566Z" agent="Mozilla/5.0 (Macintosh; Intel Mac OS X 10_15_7) AppleWebKit/537.36 (KHTML, like Gecko) draw.io/22.1.11 Chrome/114.0.5735.289 Electron/25.9.8 Safari/537.36" etag="z1UbLN06UvtOtWInkI9v" version="22.1.11" type="device">
  <diagram id="p3PRGL4ZNCRj2WZDpn7T" name="Страница — 2">
    <mxGraphModel dx="954" dy="674" grid="1" gridSize="10" guides="1" tooltips="1" connect="1" arrows="1" fold="1" page="1" pageScale="1" pageWidth="827" pageHeight="1169" math="0" shadow="0">
      <root>
        <mxCell id="0" />
        <mxCell id="1" parent="0" />
        <mxCell id="Fb7ibTXKHCUQCf8xs71h-17" style="edgeStyle=orthogonalEdgeStyle;rounded=0;orthogonalLoop=1;jettySize=auto;html=1;exitX=0.5;exitY=1;exitDx=0;exitDy=0;" parent="1" source="Fb7ibTXKHCUQCf8xs71h-2" target="Fb7ibTXKHCUQCf8xs71h-3" edge="1">
          <mxGeometry relative="1" as="geometry" />
        </mxCell>
        <mxCell id="Fb7ibTXKHCUQCf8xs71h-18" style="edgeStyle=orthogonalEdgeStyle;rounded=0;orthogonalLoop=1;jettySize=auto;html=1;exitX=0.5;exitY=1;exitDx=0;exitDy=0;" parent="1" source="Fb7ibTXKHCUQCf8xs71h-2" target="Fb7ibTXKHCUQCf8xs71h-4" edge="1">
          <mxGeometry relative="1" as="geometry">
            <Array as="points">
              <mxPoint x="414" y="155" />
              <mxPoint x="570" y="155" />
            </Array>
          </mxGeometry>
        </mxCell>
        <mxCell id="Fb7ibTXKHCUQCf8xs71h-2" value="&lt;font style=&quot;font-size: 18px;&quot;&gt;class Animal&lt;/font&gt;" style="rounded=0;whiteSpace=wrap;html=1;" parent="1" vertex="1">
          <mxGeometry x="354" y="50" width="120" height="60" as="geometry" />
        </mxCell>
        <mxCell id="Fb7ibTXKHCUQCf8xs71h-19" style="edgeStyle=orthogonalEdgeStyle;rounded=0;orthogonalLoop=1;jettySize=auto;html=1;exitX=0.5;exitY=1;exitDx=0;exitDy=0;entryX=0.5;entryY=0;entryDx=0;entryDy=0;" parent="1" source="Fb7ibTXKHCUQCf8xs71h-3" target="Fb7ibTXKHCUQCf8xs71h-5" edge="1">
          <mxGeometry relative="1" as="geometry" />
        </mxCell>
        <mxCell id="Fb7ibTXKHCUQCf8xs71h-20" style="edgeStyle=orthogonalEdgeStyle;rounded=0;orthogonalLoop=1;jettySize=auto;html=1;exitX=0.5;exitY=1;exitDx=0;exitDy=0;entryX=0.5;entryY=0;entryDx=0;entryDy=0;" parent="1" source="Fb7ibTXKHCUQCf8xs71h-3" target="Fb7ibTXKHCUQCf8xs71h-11" edge="1">
          <mxGeometry relative="1" as="geometry" />
        </mxCell>
        <mxCell id="Fb7ibTXKHCUQCf8xs71h-21" style="edgeStyle=orthogonalEdgeStyle;rounded=0;orthogonalLoop=1;jettySize=auto;html=1;exitX=0.5;exitY=1;exitDx=0;exitDy=0;entryX=0.5;entryY=0;entryDx=0;entryDy=0;" parent="1" source="Fb7ibTXKHCUQCf8xs71h-3" target="Fb7ibTXKHCUQCf8xs71h-10" edge="1">
          <mxGeometry relative="1" as="geometry" />
        </mxCell>
        <mxCell id="Fb7ibTXKHCUQCf8xs71h-3" value="&lt;font style=&quot;font-size: 18px;&quot;&gt;class Pet&lt;/font&gt;" style="rounded=1;whiteSpace=wrap;html=1;" parent="1" vertex="1">
          <mxGeometry x="180" y="200" width="120" height="60" as="geometry" />
        </mxCell>
        <mxCell id="Fb7ibTXKHCUQCf8xs71h-22" style="edgeStyle=orthogonalEdgeStyle;rounded=0;orthogonalLoop=1;jettySize=auto;html=1;exitX=0.5;exitY=1;exitDx=0;exitDy=0;entryX=0.5;entryY=0;entryDx=0;entryDy=0;" parent="1" source="Fb7ibTXKHCUQCf8xs71h-4" target="Fb7ibTXKHCUQCf8xs71h-14" edge="1">
          <mxGeometry relative="1" as="geometry" />
        </mxCell>
        <mxCell id="Fb7ibTXKHCUQCf8xs71h-23" style="edgeStyle=orthogonalEdgeStyle;rounded=0;orthogonalLoop=1;jettySize=auto;html=1;exitX=0.5;exitY=1;exitDx=0;exitDy=0;" parent="1" source="Fb7ibTXKHCUQCf8xs71h-4" target="Fb7ibTXKHCUQCf8xs71h-12" edge="1">
          <mxGeometry relative="1" as="geometry" />
        </mxCell>
        <mxCell id="Fb7ibTXKHCUQCf8xs71h-24" style="edgeStyle=orthogonalEdgeStyle;rounded=0;orthogonalLoop=1;jettySize=auto;html=1;exitX=0.5;exitY=1;exitDx=0;exitDy=0;entryX=0.5;entryY=0;entryDx=0;entryDy=0;" parent="1" source="Fb7ibTXKHCUQCf8xs71h-4" target="Fb7ibTXKHCUQCf8xs71h-13" edge="1">
          <mxGeometry relative="1" as="geometry" />
        </mxCell>
        <mxCell id="Fb7ibTXKHCUQCf8xs71h-4" value="&lt;font style=&quot;font-size: 14px;&quot;&gt;class Pack_animal&lt;/font&gt;" style="rounded=1;whiteSpace=wrap;html=1;" parent="1" vertex="1">
          <mxGeometry x="510" y="200" width="120" height="60" as="geometry" />
        </mxCell>
        <mxCell id="Fb7ibTXKHCUQCf8xs71h-46" style="edgeStyle=orthogonalEdgeStyle;rounded=0;orthogonalLoop=1;jettySize=auto;html=1;exitX=0.5;exitY=1;exitDx=0;exitDy=0;entryX=0.5;entryY=0;entryDx=0;entryDy=0;" parent="1" source="Fb7ibTXKHCUQCf8xs71h-5" target="Fb7ibTXKHCUQCf8xs71h-25" edge="1">
          <mxGeometry relative="1" as="geometry" />
        </mxCell>
        <mxCell id="Fb7ibTXKHCUQCf8xs71h-47" style="edgeStyle=orthogonalEdgeStyle;rounded=0;orthogonalLoop=1;jettySize=auto;html=1;exitX=0.5;exitY=1;exitDx=0;exitDy=0;entryX=0.5;entryY=0;entryDx=0;entryDy=0;" parent="1" source="Fb7ibTXKHCUQCf8xs71h-5" target="Fb7ibTXKHCUQCf8xs71h-26" edge="1">
          <mxGeometry relative="1" as="geometry" />
        </mxCell>
        <mxCell id="Fb7ibTXKHCUQCf8xs71h-48" style="edgeStyle=orthogonalEdgeStyle;rounded=0;orthogonalLoop=1;jettySize=auto;html=1;exitX=0.5;exitY=1;exitDx=0;exitDy=0;entryX=0.5;entryY=0;entryDx=0;entryDy=0;" parent="1" source="Fb7ibTXKHCUQCf8xs71h-5" target="Fb7ibTXKHCUQCf8xs71h-27" edge="1">
          <mxGeometry relative="1" as="geometry" />
        </mxCell>
        <mxCell id="Fb7ibTXKHCUQCf8xs71h-5" value="&lt;font style=&quot;font-size: 14px;&quot;&gt;class Cat&lt;/font&gt;" style="ellipse;whiteSpace=wrap;html=1;" parent="1" vertex="1">
          <mxGeometry x="40" y="320" width="90" height="60" as="geometry" />
        </mxCell>
        <mxCell id="Fb7ibTXKHCUQCf8xs71h-49" style="edgeStyle=orthogonalEdgeStyle;rounded=0;orthogonalLoop=1;jettySize=auto;html=1;exitX=0.5;exitY=1;exitDx=0;exitDy=0;entryX=0.5;entryY=0;entryDx=0;entryDy=0;" parent="1" source="Fb7ibTXKHCUQCf8xs71h-10" target="Fb7ibTXKHCUQCf8xs71h-28" edge="1">
          <mxGeometry relative="1" as="geometry" />
        </mxCell>
        <mxCell id="Fb7ibTXKHCUQCf8xs71h-50" style="edgeStyle=orthogonalEdgeStyle;rounded=0;orthogonalLoop=1;jettySize=auto;html=1;exitX=0.5;exitY=1;exitDx=0;exitDy=0;entryX=0.5;entryY=0;entryDx=0;entryDy=0;" parent="1" source="Fb7ibTXKHCUQCf8xs71h-10" target="Fb7ibTXKHCUQCf8xs71h-30" edge="1">
          <mxGeometry relative="1" as="geometry" />
        </mxCell>
        <mxCell id="Fb7ibTXKHCUQCf8xs71h-51" style="edgeStyle=orthogonalEdgeStyle;rounded=0;orthogonalLoop=1;jettySize=auto;html=1;exitX=0.5;exitY=1;exitDx=0;exitDy=0;entryX=0.5;entryY=0;entryDx=0;entryDy=0;" parent="1" source="Fb7ibTXKHCUQCf8xs71h-10" target="Fb7ibTXKHCUQCf8xs71h-29" edge="1">
          <mxGeometry relative="1" as="geometry" />
        </mxCell>
        <mxCell id="Fb7ibTXKHCUQCf8xs71h-10" value="&lt;font style=&quot;font-size: 14px;&quot;&gt;class Dog&lt;/font&gt;" style="ellipse;whiteSpace=wrap;html=1;" parent="1" vertex="1">
          <mxGeometry x="150" y="320" width="90" height="60" as="geometry" />
        </mxCell>
        <mxCell id="Fb7ibTXKHCUQCf8xs71h-52" style="edgeStyle=orthogonalEdgeStyle;rounded=0;orthogonalLoop=1;jettySize=auto;html=1;exitX=0.5;exitY=1;exitDx=0;exitDy=0;entryX=0.5;entryY=0;entryDx=0;entryDy=0;" parent="1" source="Fb7ibTXKHCUQCf8xs71h-11" target="Fb7ibTXKHCUQCf8xs71h-34" edge="1">
          <mxGeometry relative="1" as="geometry" />
        </mxCell>
        <mxCell id="Fb7ibTXKHCUQCf8xs71h-53" style="edgeStyle=orthogonalEdgeStyle;rounded=0;orthogonalLoop=1;jettySize=auto;html=1;exitX=0.5;exitY=1;exitDx=0;exitDy=0;entryX=0.5;entryY=0;entryDx=0;entryDy=0;" parent="1" source="Fb7ibTXKHCUQCf8xs71h-11" target="Fb7ibTXKHCUQCf8xs71h-35" edge="1">
          <mxGeometry relative="1" as="geometry" />
        </mxCell>
        <mxCell id="Fb7ibTXKHCUQCf8xs71h-54" style="edgeStyle=orthogonalEdgeStyle;rounded=0;orthogonalLoop=1;jettySize=auto;html=1;exitX=0.5;exitY=1;exitDx=0;exitDy=0;entryX=0.5;entryY=0;entryDx=0;entryDy=0;" parent="1" source="Fb7ibTXKHCUQCf8xs71h-11" target="Fb7ibTXKHCUQCf8xs71h-36" edge="1">
          <mxGeometry relative="1" as="geometry" />
        </mxCell>
        <mxCell id="Fb7ibTXKHCUQCf8xs71h-11" value="&lt;font style=&quot;font-size: 12px;&quot;&gt;class Humster&lt;/font&gt;" style="ellipse;whiteSpace=wrap;html=1;" parent="1" vertex="1">
          <mxGeometry x="260" y="320" width="90" height="60" as="geometry" />
        </mxCell>
        <mxCell id="Fb7ibTXKHCUQCf8xs71h-55" style="edgeStyle=orthogonalEdgeStyle;rounded=0;orthogonalLoop=1;jettySize=auto;html=1;exitX=0.5;exitY=1;exitDx=0;exitDy=0;entryX=0.5;entryY=0;entryDx=0;entryDy=0;" parent="1" source="Fb7ibTXKHCUQCf8xs71h-12" target="Fb7ibTXKHCUQCf8xs71h-37" edge="1">
          <mxGeometry relative="1" as="geometry" />
        </mxCell>
        <mxCell id="Fb7ibTXKHCUQCf8xs71h-56" style="edgeStyle=orthogonalEdgeStyle;rounded=0;orthogonalLoop=1;jettySize=auto;html=1;exitX=0.5;exitY=1;exitDx=0;exitDy=0;entryX=0.5;entryY=0;entryDx=0;entryDy=0;" parent="1" source="Fb7ibTXKHCUQCf8xs71h-12" target="Fb7ibTXKHCUQCf8xs71h-38" edge="1">
          <mxGeometry relative="1" as="geometry" />
        </mxCell>
        <mxCell id="Fb7ibTXKHCUQCf8xs71h-57" style="edgeStyle=orthogonalEdgeStyle;rounded=0;orthogonalLoop=1;jettySize=auto;html=1;exitX=0.5;exitY=1;exitDx=0;exitDy=0;entryX=0.5;entryY=0;entryDx=0;entryDy=0;" parent="1" source="Fb7ibTXKHCUQCf8xs71h-12" target="Fb7ibTXKHCUQCf8xs71h-39" edge="1">
          <mxGeometry relative="1" as="geometry" />
        </mxCell>
        <mxCell id="Fb7ibTXKHCUQCf8xs71h-12" value="&lt;font style=&quot;font-size: 14px;&quot;&gt;class Horse&lt;/font&gt;" style="ellipse;whiteSpace=wrap;html=1;" parent="1" vertex="1">
          <mxGeometry x="500" y="320" width="90" height="60" as="geometry" />
        </mxCell>
        <mxCell id="Fb7ibTXKHCUQCf8xs71h-58" style="edgeStyle=orthogonalEdgeStyle;rounded=0;orthogonalLoop=1;jettySize=auto;html=1;exitX=0.5;exitY=1;exitDx=0;exitDy=0;entryX=0.5;entryY=0;entryDx=0;entryDy=0;" parent="1" source="Fb7ibTXKHCUQCf8xs71h-13" target="Fb7ibTXKHCUQCf8xs71h-41" edge="1">
          <mxGeometry relative="1" as="geometry" />
        </mxCell>
        <mxCell id="Fb7ibTXKHCUQCf8xs71h-59" style="edgeStyle=orthogonalEdgeStyle;rounded=0;orthogonalLoop=1;jettySize=auto;html=1;exitX=0.5;exitY=1;exitDx=0;exitDy=0;entryX=0.5;entryY=0;entryDx=0;entryDy=0;" parent="1" source="Fb7ibTXKHCUQCf8xs71h-13" target="Fb7ibTXKHCUQCf8xs71h-40" edge="1">
          <mxGeometry relative="1" as="geometry" />
        </mxCell>
        <mxCell id="Fb7ibTXKHCUQCf8xs71h-60" style="edgeStyle=orthogonalEdgeStyle;rounded=0;orthogonalLoop=1;jettySize=auto;html=1;exitX=0.5;exitY=1;exitDx=0;exitDy=0;entryX=0.5;entryY=0;entryDx=0;entryDy=0;" parent="1" source="Fb7ibTXKHCUQCf8xs71h-13" target="Fb7ibTXKHCUQCf8xs71h-42" edge="1">
          <mxGeometry relative="1" as="geometry" />
        </mxCell>
        <mxCell id="Fb7ibTXKHCUQCf8xs71h-13" value="&lt;font style=&quot;font-size: 14px;&quot;&gt;class Camel&lt;/font&gt;" style="ellipse;whiteSpace=wrap;html=1;" parent="1" vertex="1">
          <mxGeometry x="610" y="320" width="90" height="60" as="geometry" />
        </mxCell>
        <mxCell id="Fb7ibTXKHCUQCf8xs71h-61" style="edgeStyle=orthogonalEdgeStyle;rounded=0;orthogonalLoop=1;jettySize=auto;html=1;exitX=0.5;exitY=1;exitDx=0;exitDy=0;entryX=0.5;entryY=0;entryDx=0;entryDy=0;" parent="1" source="Fb7ibTXKHCUQCf8xs71h-14" target="Fb7ibTXKHCUQCf8xs71h-43" edge="1">
          <mxGeometry relative="1" as="geometry" />
        </mxCell>
        <mxCell id="Fb7ibTXKHCUQCf8xs71h-62" style="edgeStyle=orthogonalEdgeStyle;rounded=0;orthogonalLoop=1;jettySize=auto;html=1;exitX=0.5;exitY=1;exitDx=0;exitDy=0;entryX=0.5;entryY=0;entryDx=0;entryDy=0;" parent="1" source="Fb7ibTXKHCUQCf8xs71h-14" target="Fb7ibTXKHCUQCf8xs71h-45" edge="1">
          <mxGeometry relative="1" as="geometry" />
        </mxCell>
        <mxCell id="Fb7ibTXKHCUQCf8xs71h-63" style="edgeStyle=orthogonalEdgeStyle;rounded=0;orthogonalLoop=1;jettySize=auto;html=1;exitX=0.5;exitY=1;exitDx=0;exitDy=0;entryX=0.5;entryY=0;entryDx=0;entryDy=0;" parent="1" source="Fb7ibTXKHCUQCf8xs71h-14" target="Fb7ibTXKHCUQCf8xs71h-44" edge="1">
          <mxGeometry relative="1" as="geometry" />
        </mxCell>
        <mxCell id="Fb7ibTXKHCUQCf8xs71h-14" value="class Donkey" style="ellipse;whiteSpace=wrap;html=1;" parent="1" vertex="1">
          <mxGeometry x="720" y="320" width="90" height="60" as="geometry" />
        </mxCell>
        <mxCell id="Fb7ibTXKHCUQCf8xs71h-25" value="" style="ellipse;whiteSpace=wrap;html=1;aspect=fixed;" parent="1" vertex="1">
          <mxGeometry x="20" y="420" width="30" height="30" as="geometry" />
        </mxCell>
        <mxCell id="Fb7ibTXKHCUQCf8xs71h-26" value="" style="ellipse;whiteSpace=wrap;html=1;aspect=fixed;" parent="1" vertex="1">
          <mxGeometry x="60" y="420" width="30" height="30" as="geometry" />
        </mxCell>
        <mxCell id="Fb7ibTXKHCUQCf8xs71h-27" value="" style="ellipse;whiteSpace=wrap;html=1;aspect=fixed;" parent="1" vertex="1">
          <mxGeometry x="100" y="420" width="30" height="30" as="geometry" />
        </mxCell>
        <mxCell id="Fb7ibTXKHCUQCf8xs71h-28" value="" style="ellipse;whiteSpace=wrap;html=1;aspect=fixed;" parent="1" vertex="1">
          <mxGeometry x="140" y="420" width="30" height="30" as="geometry" />
        </mxCell>
        <mxCell id="Fb7ibTXKHCUQCf8xs71h-29" value="" style="ellipse;whiteSpace=wrap;html=1;aspect=fixed;" parent="1" vertex="1">
          <mxGeometry x="180" y="420" width="30" height="30" as="geometry" />
        </mxCell>
        <mxCell id="Fb7ibTXKHCUQCf8xs71h-30" value="" style="ellipse;whiteSpace=wrap;html=1;aspect=fixed;" parent="1" vertex="1">
          <mxGeometry x="220" y="420" width="30" height="30" as="geometry" />
        </mxCell>
        <mxCell id="Fb7ibTXKHCUQCf8xs71h-34" value="" style="ellipse;whiteSpace=wrap;html=1;aspect=fixed;" parent="1" vertex="1">
          <mxGeometry x="260" y="420" width="30" height="30" as="geometry" />
        </mxCell>
        <mxCell id="Fb7ibTXKHCUQCf8xs71h-35" value="" style="ellipse;whiteSpace=wrap;html=1;aspect=fixed;" parent="1" vertex="1">
          <mxGeometry x="300" y="420" width="30" height="30" as="geometry" />
        </mxCell>
        <mxCell id="Fb7ibTXKHCUQCf8xs71h-36" value="" style="ellipse;whiteSpace=wrap;html=1;aspect=fixed;" parent="1" vertex="1">
          <mxGeometry x="340" y="420" width="30" height="30" as="geometry" />
        </mxCell>
        <mxCell id="Fb7ibTXKHCUQCf8xs71h-37" value="" style="ellipse;whiteSpace=wrap;html=1;aspect=fixed;" parent="1" vertex="1">
          <mxGeometry x="490" y="420" width="30" height="30" as="geometry" />
        </mxCell>
        <mxCell id="Fb7ibTXKHCUQCf8xs71h-38" value="" style="ellipse;whiteSpace=wrap;html=1;aspect=fixed;" parent="1" vertex="1">
          <mxGeometry x="530" y="420" width="30" height="30" as="geometry" />
        </mxCell>
        <mxCell id="Fb7ibTXKHCUQCf8xs71h-39" value="" style="ellipse;whiteSpace=wrap;html=1;aspect=fixed;" parent="1" vertex="1">
          <mxGeometry x="570" y="420" width="30" height="30" as="geometry" />
        </mxCell>
        <mxCell id="Fb7ibTXKHCUQCf8xs71h-40" value="" style="ellipse;whiteSpace=wrap;html=1;aspect=fixed;" parent="1" vertex="1">
          <mxGeometry x="610" y="420" width="30" height="30" as="geometry" />
        </mxCell>
        <mxCell id="Fb7ibTXKHCUQCf8xs71h-41" value="" style="ellipse;whiteSpace=wrap;html=1;aspect=fixed;" parent="1" vertex="1">
          <mxGeometry x="650" y="420" width="30" height="30" as="geometry" />
        </mxCell>
        <mxCell id="Fb7ibTXKHCUQCf8xs71h-42" value="" style="ellipse;whiteSpace=wrap;html=1;aspect=fixed;" parent="1" vertex="1">
          <mxGeometry x="690" y="420" width="30" height="30" as="geometry" />
        </mxCell>
        <mxCell id="Fb7ibTXKHCUQCf8xs71h-43" value="" style="ellipse;whiteSpace=wrap;html=1;aspect=fixed;" parent="1" vertex="1">
          <mxGeometry x="730" y="420" width="30" height="30" as="geometry" />
        </mxCell>
        <mxCell id="Fb7ibTXKHCUQCf8xs71h-44" value="" style="ellipse;whiteSpace=wrap;html=1;aspect=fixed;" parent="1" vertex="1">
          <mxGeometry x="770" y="420" width="30" height="30" as="geometry" />
        </mxCell>
        <mxCell id="Fb7ibTXKHCUQCf8xs71h-45" value="" style="ellipse;whiteSpace=wrap;html=1;aspect=fixed;" parent="1" vertex="1">
          <mxGeometry x="810" y="420" width="30" height="30" as="geometry" />
        </mxCell>
      </root>
    </mxGraphModel>
  </diagram>
</mxfile>
